<?xml version="1.0" standalone="no"?>
<!DOCTYPE svg PUBLIC "-//W3C//DTD SVG 20010904//EN"
 "http://www.w3.org/TR/2001/REC-SVG-20010904/DTD/svg10.dtd">
<svg version="1.0" xmlns="http://www.w3.org/2000/svg"
 width="260.000000pt" height="260.000000pt" viewBox="0 0 260.000000 260.000000"
 preserveAspectRatio="xMidYMid meet">
<metadata>
Created by potrace 1.14, written by Peter Selinger 2001-2017
</metadata>
<g transform="translate(0.000000,260.000000) scale(0.100000,-0.100000)"
fill="#000000" stroke="none">
<path d="M350 1918 c75 -206 234 -397 424 -512 60 -36 180 -89 229 -101 l28
-7 -31 83 c-77 211 -238 403 -435 519 -65 37 -211 100 -235 100 -5 0 4 -37 20
-82z"/>
<path d="M2185 1976 c-282 -109 -496 -322 -595 -594 -16 -45 -25 -82 -20 -82
24 0 170 63 235 100 170 100 301 242 391 425 53 108 75 175 58 175 -5 -1 -36
-11 -69 -24z"/>
<path d="M387 1456 c-50 -18 -76 -42 -98 -91 -33 -72 -19 -144 37 -197 97 -90
246 -48 285 81 39 131 -96 254 -224 207z"/>
<path d="M1225 1456 c-129 -58 -141 -245 -20 -313 143 -81 312 62 254 214 -33
87 -150 136 -234 99z"/>
<path d="M2087 1455 c-114 -40 -152 -183 -74 -272 96 -109 261 -71 298 69 24
88 -30 183 -116 207 -50 14 -61 13 -108 -4z"/>
<path d="M964 1270 c-68 -24 -185 -83 -243 -122 -67 -46 -196 -174 -246 -243
-49 -68 -97 -161 -131 -253 -13 -34 -24 -65 -24 -67 0 -9 164 55 219 86 178
100 330 257 418 434 29 56 74 185 65 184 -4 0 -30 -9 -58 -19z"/>
<path d="M1560 1285 c0 -12 50 -136 75 -185 80 -159 226 -315 379 -407 86 -51
231 -111 242 -100 8 8 -24 101 -59 172 -67 134 -181 271 -302 362 -67 50 -191
116 -274 144 -59 21 -61 21 -61 14z"/>
</g>
</svg>
